<?xml version="1.0" encoding="UTF-8"?>
<svg width="16px" height="16px" viewBox="0 0 16 16" version="1.1" xmlns="http://www.w3.org/2000/svg" xmlns:xlink="http://www.w3.org/1999/xlink">
    <title>icon/16px/batch</title>
    <g id="icon/16px/batch" stroke="none" stroke-width="1" fill="none" fill-rule="evenodd">
        <path d="M1.39675023,1.45249145 L6.41709749,0.326054607 C7.05954171,0.181906643 7.69720066,0.58585557 7.84134863,1.22829979 C7.8605709,1.31397034 7.87027027,1.40150221 7.87027027,1.48930277 L7.87027027,10.3410979 C7.87027027,11.1778778 7.28999997,11.902773 6.47352004,12.0859701 L1.45317278,13.2124069 C0.810728559,13.3565549 0.173069606,12.952606 0.0289216416,12.3101618 C0.00969937365,12.2244912 1.12097549e-15,12.1369593 1.11022302e-15,12.0491588 L4.4408921e-16,3.19736369 C3.41613223e-16,2.36058375 0.580270303,1.63568855 1.39675023,1.45249145 Z" id="蒙版备份-2" fill="#DAD7FD" opacity="0.5"></path>
        <path d="M5.4616151,2.68326068 L10.4819624,1.55682384 C11.1244066,1.41267587 11.7620655,1.8166248 11.9062135,2.45906902 C11.9254358,2.54473957 11.9351351,2.63227144 11.9351351,2.720072 L11.9351351,11.5718671 C11.9351351,12.408647 11.3548648,13.1335422 10.5383849,13.3167393 L5.51803764,14.4431762 C4.87559342,14.5873241 4.23793447,14.1833752 4.09378651,13.540931 C4.07456424,13.4552604 4.06486486,13.3677286 4.06486486,13.279928 L4.06486486,4.42813292 C4.06486486,3.59135298 4.64513517,2.86645778 5.4616151,2.68326068 Z" id="蒙版备份" fill="#DAD7FD" opacity="0.5"></path>
        <path d="M9.52647996,3.91402991 L14.5468272,2.78759307 C15.1892714,2.6434451 15.8269304,3.04739403 15.9710784,3.68983825 C15.9903006,3.7755088 16,3.86304067 16,3.95084123 L16,12.8026363 C16,13.6394162 15.4197297,14.3643114 14.6032498,14.5475086 L9.58290251,15.6739454 C8.94045829,15.8180934 8.30279934,15.4141444 8.15865137,14.7717002 C8.1394291,14.6860297 8.12972973,14.5984978 8.12972973,14.5106972 L8.12972973,5.65890215 C8.12972973,4.82212221 8.71000003,4.09722701 9.52647996,3.91402991 Z" id="蒙版" fill="#DAD7FD"></path>
    </g>
</svg>