<?xml version="1.0" encoding="UTF-8"?>
<svg width="32px" height="32px" viewBox="0 0 32 32" version="1.1" xmlns="http://www.w3.org/2000/svg" xmlns:xlink="http://www.w3.org/1999/xlink">
    <title>icon/32px/discord</title>
    <g id="icon/32px/discord" stroke="none" stroke-width="1" fill="none" fill-rule="evenodd">
        <path d="M27.1070424,5.59374435 C25.0356253,4.61562477 22.820768,3.90476814 20.5051955,3.5 C20.2208154,4.01889833 19.888578,4.71682787 19.6595124,5.27202828 C17.1979994,4.89842679 14.7591209,4.89842679 12.3428771,5.27202828 C12.1138552,4.71682787 11.774073,4.01889833 11.4871487,3.5 C9.16907588,3.90476814 6.95167439,4.61823675 4.88025732,5.59892403 C0.702190394,11.970868 -0.43041486,18.1845438 0.135888864,24.3099878 C2.90700248,26.3985082 5.59254546,27.6672215 8.2327666,28.4974322 C8.88465192,27.5919611 9.46604538,26.6294249 9.96690177,25.6150032 C9.01300241,25.2491934 8.09937158,24.7977637 7.23609836,24.2736857 C7.46512018,24.1024462 7.68914133,23.923415 7.90557376,23.7392041 C13.1709263,26.224701 18.891866,26.224701 24.0943154,23.7392041 C24.313292,23.923415 24.5372693,24.1024462 24.7637908,24.2736857 C23.8979734,24.8003315 22.9818422,25.2517611 22.0279428,25.6176151 C22.5287992,26.6294249 23.1076923,27.5945731 23.762078,28.5 C26.4048433,27.6697893 29.0928779,26.4011201 31.8639937,24.3099878 C32.5284684,17.2090361 30.7288859,11.0524255 27.1070424,5.59374435 Z M10.6842344,20.5428949 C9.10362855,20.5428949 7.80740274,19.0536687 7.80740274,17.2401586 C7.80740274,15.4266485 9.07594941,13.9348546 10.6842344,13.9348546 C12.2925633,13.9348546 13.5887453,15.4240366 13.5610662,17.2401586 C13.5635664,19.0536687 12.2925633,20.5428949 10.6842344,20.5428949 Z M21.3156547,20.5428949 C19.7350488,20.5428949 18.438823,19.0536687 18.438823,17.2401586 C18.438823,15.4266485 19.7073258,13.9348546 21.3156547,13.9348546 C22.9239398,13.9348546 24.2201655,15.4240366 24.1924864,17.2401586 C24.1924864,19.0536687 22.9239398,20.5428949 21.3156547,20.5428949 Z" id="形状" fill="#959BA3" fill-rule="nonzero"></path>
    </g>
</svg>