<?xml version="1.0" encoding="UTF-8"?>
<svg width="16px" height="16px" viewBox="0 0 16 16" version="1.1" xmlns="http://www.w3.org/2000/svg" xmlns:xlink="http://www.w3.org/1999/xlink">
    <title>tag/dislike_default</title>
    <g id="tag/dislike_default" stroke="none" stroke-width="1" fill="none" fill-rule="evenodd">
        <g id="编组-9" transform="translate(1, 1.5)" fill="#B6BAC0" fill-rule="nonzero">
            <g id="like备份" transform="translate(7, 7) scale(1, -1) translate(-7, -7)translate(-0, 0)">
                <path d="M13.54304,7.36967786 C13.8367289,6.99276282 14,6.53031706 14,6.04950878 C14,5.28698066 13.5604622,4.56456016 12.8536178,4.16203423 C12.6715801,4.05839858 12.4643303,4.00384693 12.2532978,4.00401985 L8.05703111,4.00401985 L8.16156444,1.9164904 C8.18795767,1.41699223 8.00124752,0.928994333 7.64536888,0.567327839 C7.29128363,0.203595953 6.79797543,-0.00174064353 6.28245334,1.11172982e-05 C5.37019647,0.00166547357 4.57059983,0.592619041 4.32618667,1.44582982 L2.82289779,6.7289223 L2.81742223,6.7289223 L2.81742223,14 L11.0825244,14 C11.2433067,14 11.4011022,13.9695569 11.5464533,13.9081874 C12.6031167,13.4729759 13.1529014,12.3353784 12.8222578,11.2683324 C13.2562679,10.7121567 13.3907204,9.98827331 13.1841422,9.31997159 C13.4778311,8.94305654 13.6411022,8.48061079 13.6411022,7.9998025 C13.6384355,7.78638148 13.6054367,7.57433908 13.54304,7.36967786 L13.54304,7.36967786 Z M0,7.27303298 L0,13.4563725 C0,13.7569381 0.249884443,14 0.55950223,14 L1.69742223,14 L1.69742223,6.7289223 L0.56,6.7289223 C0.249884442,6.7289223 0,6.97198419 0,7.27254976 L0,7.27303298 Z" id="形状"></path>
            </g>
        </g>
    </g>
</svg>