<?xml version="1.0" encoding="UTF-8"?>
<svg width="18px" height="18px" viewBox="0 0 18 18" version="1.1" xmlns="http://www.w3.org/2000/svg" xmlns:xlink="http://www.w3.org/1999/xlink">
    <title>icon/24px/google</title>
    <g id="icon/24px/google" stroke="none" stroke-width="1" fill="none" fill-rule="evenodd">
        <g id="Google-G-logo">
            <path d="M17.64,9.20454545 C17.64,8.56636364 17.5827273,7.95272727 17.4763636,7.36363636 L9,7.36363636 L9,10.8490909 L13.8436364,10.8490909 C13.6309091,11.97 12.9927273,12.9190909 12.0354545,13.5572727 L12.0354545,15.8236364 L14.9563636,15.8236364 C16.6581818,14.2527273 17.64,11.9454545 17.64,9.20454545 L17.64,9.20454545 Z" id="路径" fill="#4285F4" fill-rule="nonzero"></path>
            <path d="M9,18 C11.43,18 13.4672727,17.1981818 14.9563636,15.8236364 L12.0354545,13.5572727 C11.2336364,14.0972727 10.2109091,14.4245455 9,14.4245455 C6.66,14.4245455 4.67181818,12.8454545 3.96,10.7181818 L0.965454545,10.7181818 L0.965454545,13.0418182 C2.44636364,15.9790909 5.48181818,18 9,18 Z" id="路径" fill="#34A853" fill-rule="nonzero"></path>
            <path d="M3.96,10.71 C3.78,10.17 3.67363636,9.59727273 3.67363636,9 C3.67363636,8.40272727 3.78,7.83 3.96,7.29 L3.96,4.96636364 L0.965454545,4.96636364 C0.351818182,6.17727273 0,7.54363636 0,9 C0,10.4563636 0.351818182,11.8227273 0.965454545,13.0336364 L3.29727273,11.2172727 L3.96,10.71 Z" id="路径" fill="#FBBC05" fill-rule="nonzero"></path>
            <path d="M9,3.58363636 C10.3254545,3.58363636 11.5036364,4.04181818 12.4445455,4.92545455 L15.0218182,2.34818182 C13.4590909,0.891818182 11.43,0 9,0 C5.48181818,0 2.44636364,2.02090909 0.965454545,4.96636364 L3.96,7.29 C4.67181818,5.16272727 6.66,3.58363636 9,3.58363636 Z" id="路径" fill="#EA4335" fill-rule="nonzero"></path>
            <polygon id="路径" points="0 0 18 0 18 18 0 18"></polygon>
        </g>
    </g>
</svg>