<?xml version="1.0" encoding="UTF-8"?>
<svg width="32px" height="32px" viewBox="0 0 32 32" version="1.1" xmlns="http://www.w3.org/2000/svg" xmlns:xlink="http://www.w3.org/1999/xlink">
    <title>icon/32px/guide</title>
    <g id="icon/32px/guide" stroke="none" stroke-width="1" fill="none" fill-rule="evenodd">
        <path d="M16.0000171,1 C24.284287,1 31,7.71573959 31,16 C31,24.2842604 24.2842527,31 16.0000171,31 C7.71574726,31 1,24.2842604 1,16 C1,7.71573959 7.7156787,1 16.0000171,1 Z M17.2785461,20.6718368 L14.5640327,20.6718368 L14.5640327,23.6393243 L17.2785461,23.6393243 L17.2785461,20.6718368 Z M15.6860316,7.93170084 C13.4781931,8.00412205 11.1618083,9.08989189 10.4017788,12.4558504 C12.2114202,12.709239 13.0800987,12.8178194 13.0800987,12.8178194 C13.0800987,12.8178194 13.5506487,9.92230745 16.4460953,10.248083 C19.3415763,10.5738584 18.6901274,12.7454667 18.4005107,13.1797883 C18.1109969,13.903692 15.432677,15.6409786 14.9983206,16.690555 C14.6395327,17.5576247 14.601834,19.0421961 14.5995732,19.5323436 L14.5997041,19.6521913 C14.5999183,19.6798686 14.600192,19.6946473 14.600192,19.6946473 L17.2061591,19.6946473 C17.2061591,19.6946473 17.0613507,17.6315852 18.5091255,16.7629419 C19.956866,15.8942987 22.4180248,13.3607214 21.3322537,10.9357589 C19.5949308,8.14886166 17.8938358,7.85931389 15.6860316,7.93170084 Z" id="形状结合" fill="#959BA3" fill-rule="nonzero"></path>
    </g>
</svg>