<?xml version="1.0" encoding="UTF-8"?>
<svg width="14px" height="14px" viewBox="0 0 14 14" version="1.1" xmlns="http://www.w3.org/2000/svg" xmlns:xlink="http://www.w3.org/1999/xlink">
    <title>icon/14px/info</title>
    <g id="icon/14px/info" stroke="none" stroke-width="1" fill="none" fill-rule="evenodd">
        <path d="M7,0.5 C8.79492738,0.5 10.4199262,1.22753721 11.5961938,2.40380477 C12.7724633,3.58007424 13.5,5.20507544 13.5,7 C13.5,8.79492267 12.7724608,10.4199222 11.5961917,11.5961913 C10.4199221,12.772461 8.79492185,13.5 7,13.5 C5.20507815,13.5 3.58007795,12.772461 2.40380828,11.5961913 C1.22753917,10.4199222 0.5,8.79492267 0.5,7 C0.5,5.20507355 1.22753431,3.58007067 2.40380415,2.40380084 C3.5800696,1.22753539 5.20506708,0.5 7,0.5 Z" id="路径" stroke="#959BA3" fill-rule="nonzero"></path>
        <path d="M6.8534814,3.23479372 C5.82315677,3.26859029 4.74217722,3.77528288 4.38749679,5.34606351 C5.23199608,5.46431152 5.63737941,5.51498238 5.63737941,5.51498238 C5.63737941,5.51498238 5.85696938,4.16374348 7.20817782,4.31577204 C8.55940227,4.46780061 8.25539277,5.48121779 8.12023832,5.68390122 C7.98513188,6.02172294 6.73524926,6.83245668 6.53254961,7.322259 C6.32986595,7.8120773 6.34675625,8.72416875 6.34675625,8.72416875 L7.56287424,8.72416875 C7.56287424,8.72416875 7.49529702,7.76140644 8.17092523,7.35603957 C8.84653746,6.95067271 9.99507823,5.76833667 9.48838505,4.63668749 C8.67763439,3.33613544 7.88379003,3.20101315 6.8534814,3.23479372 Z" id="路径" fill="#959BA3" fill-rule="nonzero"></path>
        <polygon id="路径" fill="#959BA3" fill-rule="nonzero" points="6.32988192 9.18019048 7.59665484 9.18019048 7.59665484 10.565018 6.32988192 10.565018 6.32988192 9.18019048"></polygon>
    </g>
</svg>