<?xml version="1.0" encoding="UTF-8"?>
<svg width="32px" height="32px" viewBox="0 0 32 32" version="1.1" xmlns="http://www.w3.org/2000/svg" xmlns:xlink="http://www.w3.org/1999/xlink">
    <title>icon/32px/settings</title>
    <g id="icon/32px/settings" stroke="none" stroke-width="1" fill="none" fill-rule="evenodd">
        <path d="M30.3167963,18.8125 L27.7739492,16.8839286 C27.800716,16.6160714 27.8274828,16.3214286 27.8274828,16 C27.8274828,15.6785714 27.800716,15.3839286 27.7739492,15.1160714 L30.3167963,13.1875 C31.0127334,12.6517857 31.2001011,11.7142857 30.7450653,10.9107143 L27.9077832,6.11607143 C27.5865815,5.55357143 26.9709448,5.20535714 26.3285414,5.20535714 C26.1144069,5.20535714 25.9270392,5.23214286 25.7129047,5.3125 L22.688255,6.49107143 C22.1796856,6.14285714 21.6443493,5.84821429 21.1090131,5.60714286 L20.6539773,2.52678571 C20.5201432,1.64285714 19.7706725,1 18.8606009,1 L13.1325032,1 C12.2224316,1 11.4729609,1.64285714 11.3391269,2.5 L10.9108579,5.60714286 C10.3755216,5.84821429 9.86695223,6.14285714 9.33161599,6.49107143 L6.30696628,5.3125 C6.09283179,5.23214286 5.8786973,5.20535714 5.6645628,5.20535714 C5.02215933,5.20535714 4.40652266,5.52678571 4.11208773,6.08928571 L1.24803889,10.9107143 C0.793003091,11.6607143 0.980370772,12.6517857 1.67630787,13.1875 L4.21915498,15.1160714 C4.19238817,15.4375 4.16562135,15.7321429 4.16562135,16 C4.16562135,16.2678571 4.16562135,16.5625 4.21915498,16.8839286 L1.67630787,18.8125 C0.980370772,19.3482143 0.793003091,20.2857143 1.24803889,21.0892857 L4.08532092,25.8839286 C4.40652266,26.4464286 5.02215933,26.7946429 5.6645628,26.7946429 C5.8786973,26.7946429 6.06606498,26.7678571 6.28019947,26.6875 L9.30484918,25.5089286 C9.8134186,25.8571429 10.3487548,26.1517857 10.8840911,26.3928571 L11.3391269,29.4732143 C11.4461941,30.3303571 12.2224316,31 13.1325032,31 L18.8606009,31 C19.7706725,31 20.5201432,30.3571429 20.6539773,29.5 L21.1090131,26.3928571 C21.6443493,26.1517857 22.1529188,25.8571429 22.688255,25.5089286 L25.7129047,26.6875 C25.9270392,26.7678571 26.1411737,26.7946429 26.3553082,26.7946429 C26.9977117,26.7946429 27.6133483,26.4732143 27.9077832,25.9107143 L30.7718321,21.0625 C31.2001011,20.2857143 31.0127334,19.3482143 30.3167963,18.8125 Z M22.4205869,16 C22.4205869,19.5357143 19.5297712,22.4285714 15.9965521,22.4285714 C12.463333,22.4285714 9.5725173,19.5357143 9.5725173,16 C9.5725173,12.4642857 12.463333,9.57142857 15.9965521,9.57142857 C19.5297712,9.57142857 22.4205869,12.4642857 22.4205869,16 Z" id="形状" fill="#959BA3" fill-rule="nonzero"></path>
    </g>
</svg>