<?xml version="1.0" encoding="UTF-8"?>
<svg width="16px" height="16px" viewBox="0 0 16 16" version="1.1" xmlns="http://www.w3.org/2000/svg" xmlns:xlink="http://www.w3.org/1999/xlink">
    <title>形状结合备份</title>
    <defs>
        <linearGradient x1="13.75%" y1="9.5%" x2="74.5%" y2="87.25%" id="linearGradient-1">
            <stop stop-color="#FFD9A0" offset="0%"></stop>
            <stop stop-color="#FFF5F1" offset="100%"></stop>
        </linearGradient>
    </defs>
    <g id="控件" stroke="none" stroke-width="1" fill="none" fill-rule="evenodd">
        <g id="bar/tittle-bar" transform="translate(-1600, -17)" fill="url(#linearGradient-1)" fill-rule="nonzero">
            <g id="编组-12" transform="translate(1592, 10)">
                <g id="编组-8" transform="translate(8, 6)">
                    <path d="M15.5440767,1.25119322 L15.7080775,1.29319359 L15.7494111,1.4558617 C16.4914147,4.23988646 15.733411,8.5139245 11.4633899,12.1939572 C11.5267236,13.933306 10.9100539,15.3239851 9.47404678,16.7546645 L9.22737888,17 L6.94603429,13.5806363 C6.14536367,14.0119734 4.93269102,13.7433044 4.07068676,12.8846301 C3.20734917,12.0246224 2.93868117,10.8166117 3.3906834,9.99993773 L0,7.72658417 L0.246001225,7.48191531 C1.64200812,6.09123628 3.03868168,5.47923082 4.76402353,5.51923119 C8.43737498,1.24652651 12.7493963,0.513853323 15.5440767,1.25119322 Z M3.63718986,13.3634903 C4.21166351,13.9378566 4.0864797,14.9614286 3.3851074,15.6626697 C2.46080502,16.5876565 0,17 0,17 C0,17 0.509309481,14.4453562 1.33929527,13.6163829 C2.04066758,12.9151418 3.06100137,12.7865523 3.63718986,13.3634903 Z M10.3333794,5.66656583 C9.78109686,5.66656583 9.3333794,6.11428507 9.3333794,6.66656583 C9.3333794,7.2188644 9.78109686,7.66658363 10.3333794,7.66658363 C10.8856718,7.66658363 11.3333794,7.2188644 11.3333794,6.66656583 C11.3333794,6.11428507 10.8856718,5.66656583 10.3333794,5.66656583 Z" id="形状结合备份"></path>
                </g>
            </g>
        </g>
    </g>
</svg>